<svg width="1200" height="560" viewBox="0 0 1200 560" fill="none" xmlns="http://www.w3.org/2000/svg">
  <path d="M663.5 300.0L665.1 302.8L665.4 305.7L664.1 308.5L661.4 311.0L657.5 313.0L652.7 314.6L647.2 315.5L641.5 316.0L635.8 316.0L630.5 315.6L625.8 315.1L621.8 314.6L618.6 314.2L616.1 314.0L614.2 314.2L612.7 314.7L611.5 315.6L610.4 316.7L609.2 318.1L607.9 319.6L606.3 321.0L604.4 322.4L602.3 323.5L600.0 324.5L597.5 325.3L594.9 325.9L592.2 326.3L589.3 326.5L586.4 326.7L583.3 326.8L580.2 326.8L576.9 326.7L573.6 326.4L570.3 325.8L567.2 324.9L564.5 323.7L562.3 322.1L560.8 320.0L560.2 317.7L560.6 315.2L562.0 312.5L564.4 309.8L567.5 307.3L571.3 305.1L575.3 303.3L579.2 301.8L582.7 300.8L585.5 300.0L587.3 299.4L588.0 298.9L587.6 298.4L586.1 297.5L583.7 296.3L580.6 294.7L577.3 292.5L574.0 290.0L571.0 287.1L568.7 284.0L567.2 280.8L566.7 277.8L567.2 275.1L568.6 272.7L570.9 270.9L573.7 269.7L577.0 268.9L580.5 268.7L584.1 268.8L587.7 269.3L591.0 270.0L594.2 270.8L597.2 271.7L600.0 272.5L602.6 273.4L605.1 274.3L607.4 275.3L609.5 276.3L611.5 277.5L613.2 278.8L614.7 280.2L615.9 281.7L616.9 283.1L617.8 284.6L618.6 285.8L619.6 286.9L620.9 287.8L622.7 288.4L625.1 288.8L628.2 289.2L632.0 289.5L636.4 289.9L641.4 290.6L646.6 291.7L651.8 293.1L656.5 295.0L660.5 297.4L663.5 300.0Z" fill="none" stroke="#B08D57" stroke-width="1.0" opacity="0.30"></path>
  <path d="M698.4 300.0L696.4 304.2L693.0 308.2L688.4 311.7L683.0 314.8L677.0 317.4L670.9 319.6L664.9 321.3L659.3 322.8L654.2 324.2L649.8 325.5L645.9 326.9L642.6 328.4L639.7 330.2L636.9 332.1L634.2 334.2L631.5 336.3L628.5 338.5L625.2 340.6L621.6 342.5L617.7 344.2L613.6 345.6L609.2 346.8L604.7 347.8L600.0 348.7L595.1 349.3L590.1 349.9L585.0 350.3L579.7 350.6L574.2 350.6L568.7 350.4L563.2 349.8L557.8 348.7L552.8 347.1L548.3 344.9L544.6 342.1L541.8 338.8L540.0 335.1L539.4 331.0L539.8 326.8L541.2 322.6L543.4 318.6L546.0 314.9L548.8 311.6L551.4 308.7L553.5 306.2L554.7 304.0L555.1 302.0L554.4 300.0L552.7 297.9L550.3 295.6L547.2 293.0L543.9 290.0L540.7 286.6L537.9 282.8L535.8 278.9L534.6 274.8L534.5 270.8L535.5 267.0L537.7 263.6L540.8 260.5L544.7 258.0L549.3 255.9L554.2 254.4L559.5 253.2L564.8 252.4L570.1 251.9L575.3 251.6L580.5 251.4L585.5 251.5L590.5 251.6L595.3 252.0L600.0 252.7L604.6 253.5L608.9 254.7L613.1 256.2L616.9 257.8L620.5 259.7L623.8 261.7L626.9 263.7L629.8 265.6L632.8 267.3L636.0 268.7L639.5 269.9L643.6 270.9L648.3 271.8L653.6 272.6L659.6 273.5L665.9 274.6L672.5 276.2L679.1 278.2L685.2 280.7L690.5 283.8L694.7 287.4L697.5 291.4L698.8 295.7L698.4 300.0Z" fill="none" stroke="#B08D57" stroke-width="1.0" opacity="0.34"></path>
  <path d="M723.1 300.0L718.7 305.2L713.6 310.0L708.1 314.3L702.5 318.3L697.0 322.0L691.9 325.4L687.2 328.7L682.9 331.9L678.9 335.2L675.2 338.5L671.6 341.8L667.9 345.3L664.0 348.7L659.8 352.0L655.2 355.1L650.3 358.1L645.0 360.8L639.3 363.2L633.3 365.4L627.1 367.4L620.6 369.2L614.0 370.8L607.1 372.3L600.0 373.6L592.7 374.7L585.1 375.5L577.3 375.9L569.5 375.9L561.7 375.2L554.2 373.7L547.1 371.5L540.6 368.5L535.1 364.8L530.5 360.4L527.1 355.4L524.8 350.1L523.6 344.7L523.3 339.2L523.6 334.0L524.3 329.1L525.0 324.6L525.5 320.6L525.3 316.9L524.4 313.5L522.7 310.3L520.1 307.0L516.8 303.6L513.1 300.0L509.2 296.0L505.4 291.7L502.1 287.0L499.6 282.1L498.2 277.0L497.9 271.8L498.8 266.7L501.0 261.9L504.3 257.4L508.6 253.2L513.7 249.5L519.4 246.3L525.5 243.4L532.0 240.9L538.6 238.7L545.3 236.8L552.1 235.2L558.9 233.9L565.8 232.9L572.7 232.2L579.7 231.9L586.6 232.0L593.4 232.6L600.0 233.6L606.4 235.0L612.5 236.7L618.3 238.6L623.9 240.6L629.2 242.6L634.5 244.4L640.0 246.0L645.6 247.3L651.7 248.4L658.4 249.3L665.6 250.2L673.3 251.1L681.5 252.3L689.9 254.0L698.3 256.2L706.2 259.1L713.4 262.7L719.5 267.0L724.2 271.9L727.2 277.3L728.6 282.9L728.3 288.7L726.4 294.5L723.1 300.0Z" fill="none" stroke="#B08D57" stroke-width="1.0" opacity="0.38"></path>
  <path d="M743.5 300.0L739.4 306.1L735.2 311.9L731.0 317.4L727.0 322.7L723.2 327.9L719.6 333.0L715.9 338.1L712.2 343.2L708.3 348.2L703.9 353.2L699.2 358.0L693.9 362.6L688.2 367.0L681.9 371.2L675.2 375.1L668.2 378.7L660.8 382.2L653.1 385.4L645.1 388.5L636.7 391.4L628.1 394.1L619.1 396.6L609.7 398.7L600.0 400.4L590.0 401.4L579.9 401.7L569.9 401.0L560.0 399.5L550.7 396.9L542.0 393.3L534.3 388.8L527.6 383.6L522.0 377.8L517.6 371.6L514.0 365.3L511.3 359.1L509.1 353.1L507.1 347.5L505.0 342.3L502.6 337.5L499.7 333.0L496.1 328.7L491.9 324.5L487.2 320.2L482.1 315.6L476.9 310.8L471.9 305.6L467.5 300.0L464.0 294.1L461.5 287.8L460.3 281.5L460.4 275.1L461.9 268.7L464.6 262.6L468.4 256.7L473.2 251.2L478.8 246.0L485.0 241.2L491.7 236.7L498.8 232.5L506.2 228.7L513.9 225.2L521.9 222.1L530.2 219.4L538.7 217.1L547.4 215.4L556.3 214.3L565.3 213.7L574.2 213.7L583.1 214.2L591.7 215.1L600.0 216.4L608.1 217.8L616.0 219.2L623.7 220.6L631.5 221.7L639.4 222.6L647.7 223.3L656.4 223.8L665.6 224.2L675.4 224.8L685.6 225.7L696.0 227.0L706.5 229.0L716.6 231.8L726.1 235.5L734.5 240.1L741.7 245.5L747.2 251.6L751.1 258.3L753.3 265.3L753.8 272.5L752.8 279.7L750.5 286.8L747.4 293.6L743.5 300.0Z" fill="none" stroke="#B08D57" stroke-width="1.0" opacity="0.42"></path>
  <path d="M767.6 300.0L765.3 307.2L763.0 314.3L760.6 321.3L758.0 328.2L755.1 335.1L751.7 341.9L747.8 348.6L743.3 355.1L738.1 361.5L732.3 367.7L725.8 373.6L718.9 379.2L711.4 384.7L703.5 390.0L695.3 395.0L686.6 400.0L677.5 404.8L667.9 409.3L657.9 413.6L647.2 417.6L636.1 420.9L624.4 423.6L612.3 425.4L600.0 426.2L587.6 425.9L575.4 424.4L563.7 421.7L552.6 417.8L542.5 413.0L533.3 407.4L525.1 401.3L517.9 394.8L511.6 388.2L505.9 381.8L500.6 375.6L495.4 369.8L490.1 364.3L484.4 359.1L478.4 354.2L471.9 349.3L465.0 344.4L457.9 339.2L450.8 333.8L444.1 327.9L437.9 321.5L432.6 314.7L428.4 307.5L425.6 300.0L424.1 292.3L424.0 284.5L425.2 276.8L427.7 269.2L431.2 261.8L435.7 254.6L441.1 247.7L447.1 241.1L453.7 234.8L460.9 228.9L468.7 223.2L477.0 218.0L485.9 213.3L495.3 209.1L505.3 205.5L515.6 202.5L526.2 200.3L537.1 198.7L547.9 197.7L558.7 197.3L569.4 197.3L579.8 197.6L590.0 197.9L600.0 198.2L610.0 198.4L620.1 198.3L630.4 198.0L641.2 197.6L652.4 197.1L664.1 196.8L676.3 196.8L688.9 197.3L701.6 198.7L714.1 200.9L726.0 204.2L737.2 208.5L747.2 213.9L755.8 220.3L762.8 227.5L768.1 235.3L771.7 243.5L773.9 252.0L774.7 260.5L774.4 268.8L773.3 277.0L771.7 284.9L769.7 292.6L767.6 300.0Z" fill="none" stroke="#B08D57" stroke-width="1.0" opacity="0.46"></path>
  <path d="M797.9 300.0L797.3 308.6L796.0 317.2L794.2 325.7L791.5 334.2L788.1 342.6L783.9 350.8L778.9 358.8L773.2 366.7L766.8 374.3L759.8 381.8L752.4 389.1L744.4 396.3L735.9 403.3L726.9 410.2L717.3 417.0L706.9 423.5L695.8 429.6L683.9 435.1L671.2 439.9L657.8 443.7L643.7 446.5L629.2 448.0L614.6 448.2L600.0 447.1L585.8 444.6L572.2 441.0L559.3 436.3L547.4 431.0L536.3 425.1L526.1 418.9L516.6 412.7L507.6 406.7L498.9 400.9L490.2 395.4L481.5 390.1L472.5 385.0L463.2 380.0L453.7 374.9L444.1 369.5L434.5 363.7L425.4 357.4L416.9 350.6L409.2 343.2L402.7 335.3L397.4 326.9L393.5 318.1L391.0 309.1L389.9 300.0L390.1 290.8L391.5 281.7L394.0 272.7L397.4 263.8L401.8 255.1L407.0 246.7L413.0 238.5L419.8 230.7L427.6 223.2L436.2 216.2L445.6 209.7L455.9 203.9L466.9 198.8L478.5 194.5L490.6 190.8L502.9 187.9L515.4 185.6L527.8 183.8L540.1 182.3L552.2 181.0L564.1 179.7L576.0 178.4L587.9 176.8L600.0 175.1L612.5 173.2L625.4 171.3L638.9 169.6L653.0 168.2L667.5 167.5L682.2 167.6L697.1 168.8L711.6 171.1L725.6 174.7L738.6 179.6L750.5 185.6L761.0 192.7L769.9 200.6L777.4 209.3L783.3 218.3L787.9 227.7L791.3 237.1L793.8 246.5L795.5 255.7L796.8 264.9L797.6 273.8L798.0 282.6L798.2 291.3L797.9 300.0Z" fill="none" stroke="#B08D57" stroke-width="1.0" opacity="0.50"></path>
  <path d="M831.5 300.0L831.1 310.1L829.7 320.2L827.4 330.2L824.1 340.0L820.0 349.8L815.2 359.4L809.7 368.9L803.6 378.4L796.9 387.7L789.6 397.0L781.7 406.2L772.9 415.3L763.3 424.1L752.7 432.6L740.9 440.6L728.0 447.8L714.0 454.2L699.0 459.3L683.1 463.2L666.6 465.7L649.8 466.7L632.9 466.4L616.2 464.6L600.0 461.8L584.5 457.9L569.7 453.4L555.7 448.5L542.4 443.4L529.6 438.2L517.3 433.2L505.1 428.3L493.0 423.6L480.7 419.0L468.4 414.4L455.9 409.5L443.4 404.4L431.0 398.8L419.0 392.6L407.7 385.7L397.1 378.1L387.6 369.8L379.3 360.9L372.4 351.5L366.8 341.7L362.6 331.5L359.7 321.1L358.0 310.6L357.5 300.0L358.1 289.4L359.7 278.9L362.5 268.5L366.3 258.2L371.2 248.2L377.3 238.5L384.6 229.2L393.1 220.4L402.8 212.2L413.6 204.6L425.3 197.9L437.8 191.8L450.8 186.6L464.1 181.9L477.6 177.9L491.0 174.2L504.4 170.7L517.6 167.4L530.8 164.0L543.9 160.5L557.3 156.8L571.0 153.1L585.2 149.3L600.0 145.8L615.5 142.6L631.6 140.2L648.2 138.6L665.1 138.1L682.0 139.0L698.7 141.2L714.7 144.9L730.0 149.9L744.1 156.2L756.9 163.7L768.4 172.0L778.6 181.0L787.4 190.4L795.1 200.2L801.8 210.1L807.6 220.1L812.7 230.1L817.2 240.0L821.2 249.9L824.6 259.9L827.5 269.8L829.6 279.8L831.0 289.9L831.5 300.0Z" fill="none" stroke="#B08D57" stroke-width="1.0" opacity="0.54"></path>
  <path d="M864.3 300.0L863.8 311.5L862.3 323.0L860.0 334.5L857.0 345.9L853.2 357.3L848.9 368.7L843.8 380.1L837.9 391.6L831.1 402.9L823.2 414.2L814.1 425.2L803.5 435.7L791.5 445.6L777.9 454.6L762.9 462.5L746.5 469.2L729.0 474.4L710.7 478.2L691.9 480.5L672.9 481.3L654.0 480.9L635.4 479.4L617.4 477.1L600.0 474.2L583.2 470.9L566.9 467.4L551.1 463.9L535.5 460.4L520.1 456.9L504.7 453.5L489.1 449.9L473.6 446.0L458.0 441.7L442.6 436.7L427.5 431.1L412.9 424.7L399.1 417.4L386.2 409.4L374.5 400.5L363.9 390.9L354.6 380.7L346.6 370.0L339.8 358.9L334.3 347.5L330.0 335.8L326.9 324.0L325.0 312.0L324.3 300.0L324.9 288.0L326.9 276.0L330.4 264.2L335.4 252.7L341.9 241.6L350.0 231.0L359.5 220.9L370.2 211.6L382.1 202.9L394.8 195.0L408.1 187.8L421.7 181.1L435.4 174.9L449.2 169.0L462.9 163.2L476.5 157.4L490.2 151.6L504.1 145.6L518.3 139.6L533.1 133.6L548.6 127.8L565.0 122.5L582.1 117.9L600.0 114.2L618.5 111.6L637.4 110.5L656.5 110.8L675.3 112.6L693.7 116.0L711.3 120.9L728.0 127.0L743.6 134.2L758.0 142.3L771.3 151.1L783.6 160.5L794.8 170.1L805.1 180.1L814.6 190.2L823.4 200.5L831.5 210.9L838.9 221.5L845.5 232.2L851.2 243.2L855.9 254.3L859.7 265.6L862.3 277.0L863.9 288.5L864.3 300.0Z" fill="none" stroke="#B08D57" stroke-width="1.0" opacity="0.58"></path>
  <path d="M897.1 300.0L897.4 313.0L897.1 326.1L896.0 339.2L894.1 352.5L891.3 365.9L887.5 379.4L882.4 392.9L875.9 406.2L867.6 419.2L857.5 431.7L845.5 443.5L831.5 454.4L815.8 464.0L798.4 472.4L779.7 479.3L760.0 484.7L739.6 488.7L718.9 491.4L698.2 492.9L677.7 493.4L657.6 493.2L638.0 492.4L618.8 491.4L600.0 490.1L581.4 488.7L563.0 487.2L544.6 485.6L526.2 483.6L507.7 481.3L489.1 478.4L470.7 474.9L452.4 470.4L434.5 465.1L417.3 458.8L400.8 451.5L385.2 443.2L370.6 434.1L357.2 424.2L345.0 413.6L333.9 402.4L324.0 390.8L315.2 378.6L307.7 366.1L301.5 353.3L296.5 340.2L293.1 326.9L291.2 313.5L291.1 300.0L292.7 286.6L296.2 273.3L301.6 260.4L308.8 248.0L317.5 236.1L327.7 224.8L338.9 214.2L351.1 204.2L363.7 194.8L376.7 185.8L389.9 177.1L403.0 168.7L416.2 160.3L429.5 151.9L443.0 143.4L457.0 134.9L471.6 126.4L487.0 118.1L503.4 110.3L520.9 103.2L539.4 96.9L558.9 91.9L579.2 88.2L600.0 86.1L621.1 85.6L642.1 86.7L662.9 89.3L683.0 93.4L702.5 98.8L721.0 105.2L738.7 112.5L755.4 120.6L771.2 129.2L786.2 138.2L800.3 147.7L813.7 157.5L826.3 167.7L838.0 178.3L848.8 189.2L858.7 200.4L867.5 212.1L875.1 224.0L881.6 236.3L886.8 248.8L890.9 261.4L893.9 274.2L895.9 287.1L897.1 300.0Z" fill="none" stroke="#B08D57" stroke-width="1.0" opacity="0.63"></path>
  <path d="M934.0 300.0L936.3 314.7L937.6 329.6L937.7 344.8L936.5 360.1L933.5 375.5L928.6 390.7L921.6 405.7L912.2 420.2L900.6 433.9L886.6 446.6L870.6 458.2L852.7 468.5L833.3 477.4L812.8 484.9L791.5 491.0L769.7 496.0L747.9 499.9L726.1 503.0L704.6 505.5L683.4 507.5L662.4 509.1L641.6 510.4L620.8 511.5L600.0 512.3L579.1 512.7L558.0 512.6L536.8 511.8L515.5 510.2L494.3 507.6L473.3 504.0L452.6 499.2L432.5 493.4L413.1 486.5L394.5 478.6L376.8 469.7L360.1 460.0L344.3 449.5L329.7 438.3L316.1 426.5L303.7 414.1L292.5 401.1L282.8 387.6L274.6 373.6L268.1 359.3L263.5 344.6L260.9 329.8L260.4 314.8L262.0 300.0L265.7 285.4L271.3 271.2L278.6 257.4L287.4 244.2L297.2 231.5L307.8 219.3L318.9 207.6L330.3 196.2L341.8 185.0L353.5 173.9L365.4 162.8L377.5 151.7L390.2 140.5L403.7 129.4L418.1 118.5L433.7 108.0L450.7 98.1L469.0 89.1L488.6 81.3L509.5 74.7L531.3 69.7L553.8 66.3L576.8 64.5L600.0 64.3L623.0 65.7L645.7 68.5L667.9 72.4L689.5 77.4L710.3 83.4L730.4 90.1L749.8 97.4L768.5 105.4L786.4 114.0L803.6 123.1L819.9 132.9L835.2 143.2L849.6 154.1L862.8 165.6L874.8 177.6L885.7 190.1L895.2 202.9L903.6 216.2L910.9 229.6L917.2 243.3L922.6 257.2L927.1 271.3L931.0 285.5L934.0 300.0Z" fill="none" stroke="#B08D57" stroke-width="1.0" opacity="0.67"></path>
  <path d="M977.3 300.0L980.7 316.6L982.3 333.6L981.8 350.6L978.9 367.7L973.4 384.5L965.2 400.8L954.3 416.5L940.9 431.2L925.2 444.8L907.5 457.3L888.1 468.4L867.6 478.4L846.2 487.1L824.3 494.9L802.1 501.7L779.9 507.8L757.8 513.3L735.6 518.3L713.5 523.0L691.3 527.2L668.9 531.0L646.3 534.3L623.3 536.9L600.0 538.8L576.4 539.7L552.7 539.6L528.9 538.3L505.2 535.9L481.8 532.2L458.7 527.4L436.2 521.4L414.4 514.3L393.3 506.3L372.9 497.3L353.4 487.4L334.9 476.7L317.4 465.2L301.1 452.9L286.1 439.8L272.6 426.0L261.0 411.5L251.2 396.3L243.7 380.6L238.3 364.6L235.3 348.4L234.6 332.1L236.0 315.9L239.3 300.0L244.3 284.5L250.7 269.3L258.0 254.6L266.0 240.3L274.5 226.3L283.4 212.6L292.4 198.9L301.8 185.2L311.5 171.5L322.0 157.8L333.3 144.1L345.7 130.5L359.6 117.2L375.0 104.5L392.1 92.6L410.9 81.7L431.4 72.0L453.2 63.8L476.3 57.1L500.3 52.0L524.9 48.5L549.9 46.5L575.0 46.0L600.0 46.8L624.7 48.8L649.0 51.8L672.9 55.8L696.2 60.6L719.0 66.3L741.2 72.8L762.7 80.1L783.4 88.2L803.3 97.2L822.2 107.0L840.0 117.5L856.8 128.8L872.3 140.8L886.6 153.4L899.7 166.5L911.8 180.0L922.9 193.9L933.1 208.0L942.5 222.5L951.2 237.3L959.1 252.4L966.3 267.9L972.4 283.7L977.3 300.0Z" fill="none" stroke="#B08D57" stroke-width="1.0" opacity="0.71"></path>
  <path d="M1022.7 300.0L1024.8 318.6L1024.1 337.2L1020.5 355.8L1013.9 373.9L1004.4 391.5L992.2 408.3L977.6 424.1L960.9 438.9L942.6 452.6L923.0 465.2L902.5 476.9L881.4 487.6L859.9 497.6L838.2 506.9L816.2 515.7L794.0 524.0L771.4 531.8L748.5 539.0L725.1 545.6L701.1 551.5L676.6 556.6L651.5 560.6L625.9 563.5L600.0 565.2L573.9 565.7L547.7 564.9L521.6 562.8L495.7 559.5L470.1 555.0L445.0 549.5L420.4 542.8L396.3 535.2L373.0 526.5L350.5 516.7L329.0 506.0L308.7 494.2L289.9 481.3L272.7 467.4L257.4 452.6L244.3 436.9L233.5 420.5L225.1 403.5L219.1 386.2L215.3 368.7L213.7 351.2L213.9 333.9L215.7 316.8L218.7 300.0L222.5 283.5L227.0 267.3L232.0 251.2L237.3 235.2L243.1 219.2L249.4 203.2L256.5 187.1L264.6 170.9L274.1 154.8L285.1 138.9L298.0 123.4L312.9 108.6L329.8 94.6L348.7 81.7L369.5 70.0L392.0 59.8L415.8 51.0L440.8 43.8L466.6 38.1L493.0 33.8L519.7 30.9L546.5 29.2L573.3 28.7L600.0 29.2L626.5 30.8L652.6 33.5L678.4 37.1L703.8 41.8L728.6 47.5L752.7 54.3L776.0 62.1L798.3 71.0L819.7 80.8L840.0 91.5L859.2 103.0L877.3 115.2L894.4 127.9L910.6 141.1L925.9 154.8L940.6 168.9L954.6 183.4L967.9 198.4L980.4 213.9L991.9 230.0L1002.3 246.7L1011.1 263.9L1018.0 281.7L1022.7 300.0Z" fill="none" stroke="#B08D57" stroke-width="1.0" opacity="0.75"></path>
  <path d="M1061.9 300.0L1060.7 320.1L1056.3 340.0L1048.9 359.5L1038.7 378.4L1026.2 396.4L1011.6 413.6L995.3 430.0L977.8 445.4L959.2 460.0L940.0 473.9L920.1 487.1L899.7 499.8L878.7 511.9L857.1 523.4L834.9 534.4L811.9 544.6L788.0 554.1L763.2 562.7L737.6 570.3L711.2 576.7L684.1 581.9L656.4 585.8L628.4 588.5L600.0 589.8L571.5 589.9L543.0 588.8L514.5 586.4L486.3 582.9L458.3 578.3L430.7 572.5L403.7 565.4L377.4 557.1L352.0 547.5L327.8 536.5L305.1 524.2L284.2 510.5L265.3 495.7L248.6 479.8L234.2 462.9L222.3 445.4L212.7 427.3L205.3 409.0L199.9 390.6L196.1 372.1L193.7 353.9L192.4 335.8L191.9 317.8L191.9 300.0L192.6 282.2L193.8 264.3L195.6 246.4L198.4 228.3L202.3 210.0L207.8 191.7L215.0 173.4L224.3 155.4L235.8 137.8L249.7 120.8L266.0 104.7L284.5 89.7L305.1 75.8L327.5 63.3L351.5 52.1L376.9 42.3L403.2 33.9L430.3 26.9L458.0 21.0L486.0 16.5L514.4 13.0L542.9 10.8L571.5 9.7L600.0 9.8L628.4 11.1L656.5 13.7L684.3 17.6L711.5 22.7L738.0 29.1L763.7 36.6L788.5 45.2L812.4 54.8L835.3 65.2L857.4 76.3L878.8 88.1L899.4 100.4L919.4 113.3L938.8 126.7L957.6 140.7L975.7 155.4L993.0 170.8L1009.1 187.0L1023.7 204.1L1036.5 222.0L1047.0 240.7L1054.9 260.1L1060.0 279.9L1061.9 300.0Z" fill="none" stroke="#B08D57" stroke-width="1.0" opacity="0.79"></path>
  <path d="M1090.6 300.0L1086.2 321.2L1079.0 342.0L1069.5 362.3L1058.1 381.8L1045.0 400.7L1030.5 418.9L1015.0 436.4L998.5 453.4L981.1 469.8L962.9 485.6L943.7 500.9L923.4 515.6L902.1 529.7L879.6 542.9L855.9 555.3L830.9 566.6L804.8 576.9L777.7 586.0L749.6 593.8L720.7 600.4L691.2 605.7L661.2 609.7L630.7 612.5L600.0 614.1L569.1 614.5L538.1 613.6L507.1 611.4L476.3 607.9L445.8 602.9L415.9 596.3L386.9 588.1L359.0 578.3L332.6 566.8L307.9 553.8L285.3 539.3L264.8 523.5L246.6 506.6L230.6 488.9L216.9 470.6L205.2 452.0L195.2 433.1L186.7 414.1L179.3 395.2L172.9 376.3L167.3 357.4L162.3 338.4L158.1 319.3L154.6 300.0L152.2 280.4L151.0 260.6L151.5 240.5L154.0 220.3L158.6 200.1L165.8 180.1L175.5 160.4L187.9 141.4L202.9 123.1L220.3 105.8L239.9 89.5L261.6 74.4L285.0 60.5L309.8 47.9L335.8 36.4L362.9 26.2L390.9 17.3L419.5 9.5L448.7 2.9L478.5 -2.4L508.6 -6.3L539.0 -8.9L569.5 -10.1L600.0 -9.9L630.3 -8.2L660.2 -5.0L689.7 -0.6L718.5 5.1L746.7 12.0L774.1 19.8L800.9 28.5L827.0 37.9L852.6 48.0L877.7 58.7L902.4 70.1L926.6 82.3L950.3 95.2L973.2 109.1L995.2 124.0L1015.8 140.0L1034.7 157.1L1051.4 175.3L1065.7 194.6L1077.0 214.8L1085.3 235.6L1090.3 257.0L1092.1 278.5L1090.6 300.0Z" fill="none" stroke="#B08D57" stroke-width="1.0" opacity="0.83"></path>
  <path d="M1111.8 300.0L1106.5 322.1L1099.2 343.8L1090.3 365.0L1079.9 385.7L1068.2 406.0L1055.3 425.7L1041.2 445.0L1025.8 463.9L1009.0 482.2L990.7 499.9L970.9 516.9L949.6 533.1L926.6 548.3L902.2 562.6L876.3 575.7L849.1 587.7L820.8 598.5L791.4 608.1L761.2 616.5L730.1 623.8L698.4 629.8L666.1 634.6L633.2 638.1L600.0 640.2L566.5 640.9L532.9 639.9L499.4 637.2L466.3 632.7L433.9 626.2L402.5 617.9L372.5 607.6L344.1 595.5L317.6 581.8L293.1 566.6L270.7 550.3L250.4 533.1L232.0 515.1L215.4 496.8L200.2 478.1L186.4 459.2L173.5 440.2L161.5 421.1L150.3 401.8L139.9 382.2L130.4 362.3L122.1 341.9L115.1 321.2L109.8 300.0L106.6 278.4L105.8 256.6L107.5 234.7L112.0 212.8L119.4 191.2L129.6 170.1L142.5 149.6L158.0 129.9L175.9 111.1L195.8 93.2L217.6 76.4L241.1 60.7L266.0 46.1L292.2 32.6L319.6 20.3L348.1 9.2L377.6 -0.6L408.0 -9.0L439.1 -16.0L470.8 -21.5L502.9 -25.4L535.3 -27.7L567.7 -28.5L600.0 -27.8L632.0 -25.7L663.7 -22.4L694.9 -17.9L725.6 -12.5L756.0 -6.3L786.0 0.7L815.7 8.5L845.1 17.0L874.3 26.4L903.1 36.7L931.4 48.1L958.9 60.7L985.4 74.7L1010.3 90.1L1033.4 107.0L1054.1 125.2L1072.2 144.8L1087.3 165.4L1099.2 187.0L1107.8 209.3L1113.2 231.9L1115.5 254.8L1114.9 277.5L1111.8 300.0Z" fill="none" stroke="#B08D57" stroke-width="1.0" opacity="0.87"></path>
  <path d="M1133.6 300.0L1129.7 323.1L1124.1 346.0L1117.1 368.6L1108.4 390.8L1098.1 412.7L1086.1 434.2L1072.3 455.3L1056.6 475.8L1039.0 495.6L1019.5 514.6L998.1 532.8L975.0 550.0L950.1 566.2L923.8 581.3L896.1 595.4L867.1 608.4L836.9 620.3L805.7 631.1L773.5 640.7L740.3 649.0L706.2 656.0L671.4 661.4L635.9 665.1L600.0 667.0L563.9 666.8L528.0 664.6L492.5 660.2L457.9 653.6L424.4 644.9L392.3 634.2L361.9 621.8L333.3 607.9L306.5 592.8L281.5 576.7L258.1 559.9L236.2 542.5L215.6 524.7L196.0 506.7L177.4 488.3L159.5 469.5L142.6 450.4L126.6 430.7L111.8 410.5L98.4 389.6L86.8 368.1L77.2 345.9L70.1 323.2L65.6 300.0L64.0 276.6L65.3 253.1L69.6 229.7L76.8 206.5L86.8 183.9L99.4 161.8L114.5 140.4L131.7 119.8L151.0 100.0L172.2 81.2L195.2 63.3L219.8 46.5L246.0 30.9L273.6 16.5L302.7 3.4L333.1 -8.2L364.6 -18.3L397.0 -26.7L430.2 -33.5L463.9 -38.7L497.9 -42.4L532.0 -44.5L566.0 -45.4L600.0 -45.0L633.8 -43.6L667.4 -41.3L700.9 -38.2L734.3 -34.2L767.7 -29.4L801.0 -23.6L834.3 -16.7L867.3 -8.7L899.9 0.8L931.7 11.8L962.3 24.6L991.4 39.0L1018.6 55.3L1043.3 73.2L1065.4 92.7L1084.5 113.5L1100.5 135.5L1113.3 158.3L1123.1 181.6L1130.0 205.3L1134.3 229.2L1136.1 252.9L1135.8 276.6L1133.6 300.0Z" fill="none" stroke="#B08D57" stroke-width="1.6" opacity="0.91"></path>
  <circle cx="600" cy="300" r="3.5" fill="#B08D57"></circle>
</svg>