
<svg width="512" height="512" viewBox="0 0 64 64" xmlns="http://www.w3.org/2000/svg">
  
  <circle cx="32" cy="32" r="32" fill="#6E1023"></circle>
  
  <g transform="translate(32,32) scale(0.58) translate(-50,-50)">
    <circle cx="50" cy="50" r="47" stroke="#EFE6D4" stroke-width="2.5"></circle>
    <circle cx="50" cy="50" r="43.5" stroke="#B08D57" stroke-width="1.1"></circle>
    <line x1="50" y1="3" x2="50" y2="10" stroke="#EFE6D4" stroke-width="1.8"></line>
    <line x1="50" y1="97" x2="50" y2="90" stroke="#EFE6D4" stroke-width="1.8"></line>
    <line x1="3" y1="50" x2="10" y2="50" stroke="#EFE6D4" stroke-width="1.8"></line>
    <line x1="97" y1="50" x2="90" y2="50" stroke="#EFE6D4" stroke-width="1.8"></line>
    <path d="M50 20 C40 20 32 28 32 38 C32 50 50 74 50 74 C50 74 68 50 68 38 C68 28 60 20 50 20Z" fill="#EFE6D4"></path>
    <path d="M42 30 C41 35 42 41 47 42 L50 43 L53 42 C58 41 59 35 58 30 Z" fill="#6E1023"></path>
    <rect x="49.2" y="43" width="1.6" height="6" fill="#6E1023"></rect>
    <rect x="45.5" y="49" width="9" height="1.4" rx="0.7" fill="#6E1023"></rect>
  </g>
</svg>