
<svg width="120" height="120" viewBox="0 0 100 100" fill="none" xmlns="http://www.w3.org/2000/svg">
  <circle cx="50" cy="50" r="47" stroke="#1A1A1A" stroke-width="1.5"></circle>
  <circle cx="50" cy="50" r="43.5" stroke="#B08D57" stroke-width="0.6"></circle>
  <line x1="50" y1="3" x2="50" y2="8" stroke="#1A1A1A" stroke-width="1"></line>
  <line x1="50" y1="97" x2="50" y2="92" stroke="#1A1A1A" stroke-width="1"></line>
  <line x1="3" y1="50" x2="8" y2="50" stroke="#1A1A1A" stroke-width="1"></line>
  <line x1="97" y1="50" x2="92" y2="50" stroke="#1A1A1A" stroke-width="1"></line>
  <path d="M50 20 C40 20 32 28 32 38 C32 50 50 74 50 74 C50 74 68 50 68 38 C68 28 60 20 50 20Z" fill="#6E1023"></path>
  <path d="M42 30 C41 35 42 41 47 42 L50 43 L53 42 C58 41 59 35 58 30 Z" fill="#EFE6D4"></path>
  <rect x="49.2" y="43" width="1.6" height="6" fill="#EFE6D4"></rect>
  <rect x="45.5" y="49" width="9" height="1.4" rx="0.7" fill="#EFE6D4"></rect>
  <path d="M44.5 37 C44 39 44.5 42 47.2 42.5 L50 43 L52.8 42.5 C55.5 42 56 39 55.5 37 Z" fill="#560B1B" opacity="0.4"></path>
</svg>